<?xml version="1.0" standalone="no"?><!DOCTYPE svg PUBLIC "-//W3C//DTD SVG 1.1//EN" "http://www.w3.org/Graphics/SVG/1.1/DTD/svg11.dtd"><svg t="1489583788942" class="icon" style="" viewBox="0 0 1024 1024" version="1.1" xmlns="http://www.w3.org/2000/svg" p-id="2253" xmlns:xlink="http://www.w3.org/1999/xlink" width="200" height="200"><defs><style type="text/css"></style></defs><path d="M772.838703 340.178703c0-152.618956-123.69623-276.359188-276.359188-276.359188-152.618956 0-276.359188 123.740232-276.359188 276.359188 0 50.4009 13.730723 97.471962 37.266765 138.180106l-0.303922 0 239.350296 483.628836 239.488443-483.628836-0.349971 0C759.209288 437.650665 772.838703 390.580626 772.838703 340.178703M496.502028 478.31276c-76.29771 0-138.179083-61.870116-138.179083-138.179083 0-76.263941 61.881372-138.180106 138.179083-138.180106 76.365248 0 138.179083 61.916165 138.179083 138.180106C634.682134 416.442644 572.867276 478.31276 496.502028 478.31276" p-id="2254" fill="#13227a"></path></svg>